<svg xmlns="http://www.w3.org/2000/svg" version="1.1" xmlns:xlink="http://www.w3.org/1999/xlink" xmlns:svgjs="http://svgjs.com/svgjs" width="256" height="256" x="0" y="0" viewBox="0 0 24 24" style="enable-background:new 0 0 512 512" xml:space="preserve"><g><path d="M11 24c-6.078.117-9.334-7.638-5-11.889V5c.211-6.609 9.791-6.6 10 0v7.111c4.335 4.252 1.077 12.006-5 11.889Zm0-22a3 3 0 0 0-3 3v7.537a1 1 0 0 1-.332.744A5.018 5.018 0 0 0 11 22a5.018 5.018 0 0 0 3.332-8.719 1 1 0 0 1-.332-.744V5a3 3 0 0 0-3-3Zm0 18a3.007 3.007 0 0 1-1-5.829V5a1 1 0 0 1 2 0v9.171A3.007 3.007 0 0 1 11 20Zm0-4a1 1 0 0 0 0 2 1 1 0 0 0 0-2ZM21 6a3 3 0 0 1 0-6 3 3 0 0 1 0 6Zm0-4a1 1 0 0 0 0 2 1 1 0 0 0 0-2Z" fill="#6740ac"></path></g></svg>